<?xml version="1.0" encoding="utf-8"?>
<!DOCTYPE svg PUBLIC "-//W3C//DTD SVG 1.1//EN" "http://www.w3.org/Graphics/SVG/1.1/DTD/svg11.dtd">
<svg version="1.1" xmlns="http://www.w3.org/2000/svg" xmlns:xlink="http://www.w3.org/1999/xlink" x="0px" y="0px" width="6104px"
	 height="7538px" viewBox="0 0 6104 7538" enable-background="new 0 0 6104 7538" xml:space="preserve">
<g id="Yellow_Cubs">
		<polygon points="
		1417.15,6326.34 1393.8,6325.34 1378.41,6312.93 1377.42,6298.53 1382.38,6268.23 1391.32,6256.31 1421.62,6243.9 1454.39,6242.9 
		1482.2,6243.9 1498.1,6264.26 1533.85,6286.11 1545.28,6306.97 1536.34,6335.77 1532,6345.75 1498.25,6337.25 1467.5,6338.75 
		1443.47,6335.77 1432.04,6324.35 	"/>
	
		<polygon points="
		1881.15,5940.05 1885.94,5925.03 1895.95,5916.75 1920.33,5909.79 1940.8,5904.34 1958.21,5902.39 1966.49,5912.18 
		1975.41,5958.33 1975.41,5975.53 1969.32,5988.81 1961.04,5987.72 1946.24,5976.19 1932.31,5973.79 1918.38,5974.44 
		1905.31,5972.49 1888.99,5961.6 1882.45,5950.28 	"/>
	
		<path d="
		M1899.61,6236.11l-5.54,9.98l-3.7,18.85l4.07,18.48l14.79,4.44l-30.47,6.39l-7.5-18.25c0,0-4.86-15.36-3-21.25
		c3-9.5,18.25-10.08-0.25-34.42c-3.37-4.43,6.17-20.17,6.17-20.17l13.17-15.33l24.67-2.33l7.94,1.12l1.85,17.74l14.42,16.63
		l-2.59,12.2l-12.57,2.59l-14.05-2.59L1899.61,6236.11z"/>
	
		<polygon points="
		2198.13,5641.91 2193.41,5635.62 2188.54,5624.29 2189.32,5600.54 2194.36,5588.9 2210.25,5584.49 2225.98,5583.39 
		2238.41,5578.36 2248.63,5581.34 2252.72,5587.64 2254.3,5605.57 2241.55,5620.68 2222.83,5637.98 2206,5644.9 	"/>
	
		<polygon points="
		2528.84,5687.04 2528.07,5673.85 2535.43,5662.61 2553.27,5653.69 2572.27,5657.96 2581.97,5668.43 2581.97,5683.94 
		2571.11,5702.94 2544.35,5703.33 2533.5,5698.28 	"/>
	
		<polygon points="
		2679.99,6161.56 2684.02,6142.13 2681.25,6135.07 2683.77,6122.96 2684.28,6112.36 2674.94,6102.27 2635.08,6063.17 
		2631.3,6055.35 2637.1,6037.43 2652.99,6007.41 2659.8,6001.36 2669.39,5999.34 2686.8,6002.62 2705.47,6017.25 2712.28,6031.13 
		2693.86,6042.48 2691.84,6049.04 2686.55,6054.84 2686.55,6068.46 2678.22,6077.04 2673.93,6085.37 2681,6099.5 2691.09,6110.6 
		2694.37,6105.05 2701.43,6105.55 2713.29,6131.54 2706.98,6138.35 2692.85,6153.23 2687.3,6167.61 2681.25,6170.89 	"/>
</g>
<g id="Big_City_Names">
	<text transform="matrix(1 0 0 1 1403.7471 6304.9561)" font-size="18.1573">PLYMOUTH</text>
	<text transform="matrix(1 0 0 1 1903.8242 5946.6133)" font-size="13">EXETER</text>
	<text transform="matrix(1 0 0 1 1874.4082 6222.4141)" font-size="12.9877">TORBAY</text>
	<text transform="matrix(1 0 0 1 2198.6846 5597.9932)" font-size="9">TAUNTON</text>
	<text transform="matrix(1 0 0 1 2635.9814 6056.2334)" font-size="8.4362">WEYMOUTH</text>
	<text transform="matrix(1 0 0 1 2540.7871 5682.4004)" font-size="9">YEOVIL</text>
</g>
</svg>
